<svg id="Warstwa_1" data-name="Warstwa 1" xmlns="http://www.w3.org/2000/svg" viewBox="0 0 156.72 170.12"><defs><style>.cls-1{fill:#231f20;stroke:#231f20;}.cls-1,.cls-2,.cls-3{stroke-miterlimit:10;}.cls-2{fill:#7a4e00;}.cls-2,.cls-3{stroke:#939598;stroke-width:6px;}.cls-3{fill:none;}</style></defs><title>tarcza</title><path class="cls-1" d="M108,171" transform="translate(-27.54 -3.85)"/><path class="cls-1" d="M107.62,171" transform="translate(-27.54 -3.85)"/><path class="cls-1" d="M177,7.24" transform="translate(-27.54 -3.85)"/><path class="cls-1" d="M35.82,7.24" transform="translate(-27.54 -3.85)"/><path class="cls-1" d="M108,171" transform="translate(-27.54 -3.85)"/><path class="cls-1" d="M35.69,6.89" transform="translate(-27.54 -3.85)"/><path class="cls-2" d="M107.55,171c2.23,0.25,93.42-96.56,69.8-163.76L36.15,6.86h0C6.26,72.45,105.39,171.5,107.55,171" transform="translate(-27.54 -3.85)"/><line class="cls-3" x1="80.08" y1="3.39" x2="80.08" y2="167.15"/><path class="cls-3" d="M161.51,100.26" transform="translate(-27.54 -3.85)"/><path class="cls-3" d="M53.73,100.26" transform="translate(-27.54 -3.85)"/><path class="cls-3" d="M52,100.26q54.65,22,107.77,0" transform="translate(-27.54 -3.85)"/><path class="cls-3" d="M32.79,48.26q74.77,22,147.46,0" transform="translate(-27.54 -3.85)"/></svg>